<?xml version="1.0" encoding="utf-8"?>
<!-- Generator: Adobe Illustrator 24.0.1, SVG Export Plug-In . SVG Version: 6.00 Build 0)  -->
<svg version="1.1" id="Layer_1" xmlns="http://www.w3.org/2000/svg" xmlns:xlink="http://www.w3.org/1999/xlink" x="0px" y="0px"
	 viewBox="0 0 290.4 80.2" style="enable-background:new 0 0 290.4 80.2;" xml:space="preserve">
<style type="text/css">
	.st0{fill:#FFFFFF;}
</style>
<g>
	<g>
		<path class="st0" d="M48.1,66.9C48.1,66.9,48.1,66.9,48.1,66.9c0,1-0.4,2-0.9,2.8c-2.2,3.2-5.3,5.9-9,7.7h0
			c-3.5,1.7-7.6,2.7-12.3,2.7C8.1,80.2-4.6,64.1,1.6,52.1C4.9,45.9,23.9,1.4,23.9,1.4c0.8-1.9,3.9-1.9,4.7,0c0,0,5.4,11.6,10.9,23.8
			c-3.3,0-6.5,0.4-9.4,0.9c0-0.4-0.1-0.8-0.3-1.2c-0.5-1.5-7.2-5.8-7.7-7.2c-0.2-0.2-0.3,0.2-0.3,1c0.1,2.4,1.3,8.1,1.4,8.5
			c0.1,0.2,0.2,0.4,0.3,0.6c0.3,0.4,0.6,0.8,1,1.2C22,31.6,16.2,52,14.1,59.6c-0.4,1.4-0.9,2.7-1.7,4c-0.6,0.9-0.9,2-0.9,3.2
			c0,3.6,3.3,6.5,7.3,6.5c3.2,0,5.8-1.8,6.9-4.3c0.3-0.7,0.7-1.3,1.3-1.8l0.1-0.1l7.1-6.6c2.2-0.5,4.2-1.9,5.9-3.7
			C44.7,57.8,48.1,62,48.1,66.9z"/>
	</g>
	<g>
		<g>
			<path class="st0" d="M59.2,23.7h17.5v3H62.6v8.6h13.9v3H62.6v9.2h14.2v3H59.2V23.7z"/>
		</g>
		<g>
			<path class="st0" d="M95.8,57.7V47.4c-1.6,2.2-3.9,3.4-6.5,3.4c-5.1,0-8.6-3.9-8.6-10.2c0-6.3,3.5-10.1,8.6-10.1
				c2.7,0,5.1,1.4,6.5,3.4V31h3v26.7H95.8z M95.8,36.3c-1-1.7-3.4-3.1-5.8-3.1c-3.9,0-6.2,3.2-6.2,7.4s2.3,7.5,6.2,7.5
				c2.4,0,4.7-1.4,5.8-3.1V36.3z"/>
		</g>
		<g>
			<path class="st0" d="M117.9,47.6c-1.5,1.7-4,3.2-6.9,3.2c-4,0-6.2-2-6.2-6.2V31h3v12.7c0,3.4,1.7,4.4,4.3,4.4
				c2.4,0,4.6-1.4,5.7-2.9V31h3v19.3h-3V47.6z"/>
		</g>
		<g>
			<path class="st0" d="M126.4,25.7c0-1.1,0.9-2,2-2c1.1,0,2,0.9,2,2c0,1.1-0.9,2-2,2C127.3,27.8,126.4,26.9,126.4,25.7z M126.9,31
				h3v19.3h-3V31z"/>
		</g>
		<g>
			<path class="st0" d="M134.1,39.3h9.6V42h-9.6V39.3z"/>
		</g>
		<g>
			<path class="st0" d="M161.2,28.8l-5.9,21.5h-3.6l-7.6-26.7h3.7l5.9,22.2l6.1-22.2h2.8l6.1,22.2l5.9-22.2h3.7l-7.6,26.7h-3.6
				L161.2,28.8z"/>
		</g>
		<g>
			<path class="st0" d="M188.7,30.5c5.8,0,9.3,4.6,9.3,10.4v0.8h-15.6c0.2,3.6,2.8,6.7,7,6.7c2.2,0,4.4-0.9,6-2.4l1.4,2
				c-1.9,1.9-4.5,3-7.7,3c-5.7,0-9.8-4.1-9.8-10.2C179.2,35.1,183.2,30.5,188.7,30.5z M182.3,39.5H195c0-2.9-2-6.4-6.4-6.4
				C184.5,33,182.5,36.5,182.3,39.5z"/>
		</g>
		<g>
			<path class="st0" d="M214.9,48.1c-1.6,1.8-3.8,2.7-6.4,2.7c-3.3,0-6.8-2.2-6.8-6.4c0-4.3,3.5-6.4,6.8-6.4c2.6,0,4.8,0.8,6.4,2.6
				v-3.5c0-2.6-2.1-4.1-4.9-4.1c-2.3,0-4.2,0.8-5.9,2.7l-1.4-2.1c2.1-2.2,4.6-3.2,7.7-3.2c4.1,0,7.5,1.8,7.5,6.5v13.3h-3V48.1z
				 M214.9,42.6c-1.2-1.6-3.2-2.4-5.3-2.4c-2.8,0-4.8,1.8-4.8,4.2c0,2.4,2,4.2,4.8,4.2c2.1,0,4.2-0.8,5.3-2.4V42.6z"/>
		</g>
		<g>
			<path class="st0" d="M224.5,46.3V33.7h-3.2V31h3.2v-5.3h3V31h3.9v2.6h-3.9v12c0,1.4,0.6,2.5,2,2.5c0.8,0,1.6-0.4,2-0.8l0.9,2.2
				c-0.8,0.7-1.8,1.2-3.6,1.2C225.9,50.8,224.5,49.2,224.5,46.3z"/>
		</g>
		<g>
			<path class="st0" d="M248.7,37.6c0-3.4-1.8-4.4-4.4-4.4c-2.3,0-4.6,1.4-5.7,3v14.1h-3V23.7h3v10.2c1.4-1.6,4-3.3,6.9-3.3
				c4,0,6.2,2,6.2,6.2v13.6h-3V37.6z"/>
		</g>
		<g>
			<path class="st0" d="M266.1,30.5c5.8,0,9.3,4.6,9.3,10.4v0.8h-15.6c0.2,3.6,2.8,6.7,7,6.7c2.2,0,4.4-0.9,6-2.4l1.4,2
				c-1.9,1.9-4.5,3-7.7,3c-5.7,0-9.8-4.1-9.8-10.2C256.6,35.1,260.6,30.5,266.1,30.5z M259.8,39.5h12.7c0-2.9-2-6.4-6.4-6.4
				C262,33,259.9,36.5,259.8,39.5z"/>
		</g>
		<g>
			<path class="st0" d="M280.2,31h3v3.1c1.6-2,3.8-3.5,6.4-3.5v3.1c-0.4-0.1-0.7-0.1-1.2-0.1c-1.8,0-4.4,1.5-5.2,3.1v13.7h-3V31z"/>
		</g>
	</g>
</g>
</svg>
