<?xml version="1.0" encoding="utf-8"?>
<!-- Generator: Adobe Illustrator 24.0.1, SVG Export Plug-In . SVG Version: 6.00 Build 0)  -->
<svg version="1.1" id="Layer_1" xmlns="http://www.w3.org/2000/svg" xmlns:xlink="http://www.w3.org/1999/xlink" x="0px" y="0px"
	 viewBox="0 0 253.8 80.2" style="enable-background:new 0 0 253.8 80.2;" xml:space="preserve">
<style type="text/css">
	.st0{fill:#FFFFFF;}
	.st1{font-family:'ProximaNovaCond-Regular';}
	.st2{font-size:40px;}
</style>
<g>
	<g>
		<path class="st0" d="M48.1,66.9C48.1,66.9,48.1,66.9,48.1,66.9c0,1-0.4,2-0.9,2.8c-2.2,3.2-5.3,5.9-9,7.7h0
			c-3.5,1.7-7.6,2.7-12.3,2.7C8.1,80.2-4.6,64.1,1.6,52.1C4.9,45.9,23.9,1.4,23.9,1.4c0.8-1.9,3.9-1.9,4.7,0c0,0,5.4,11.6,10.9,23.8
			c-3.3,0-6.5,0.4-9.4,0.9c0-0.4-0.1-0.8-0.3-1.2c-0.5-1.5-7.2-5.8-7.7-7.2c-0.2-0.2-0.3,0.2-0.3,1c0.1,2.4,1.3,8.1,1.4,8.5
			c0.1,0.2,0.2,0.4,0.3,0.6c0.3,0.4,0.6,0.8,1,1.2C22,31.6,16.2,52,14.1,59.6c-0.4,1.4-0.9,2.7-1.7,4c-0.6,0.9-0.9,2-0.9,3.2
			c0,3.6,3.3,6.5,7.3,6.5c3.2,0,5.8-1.8,6.9-4.3c0.3-0.7,0.7-1.3,1.3-1.8l0.1-0.1l7.1-6.6c2.2-0.5,4.2-1.9,5.9-3.7
			C44.7,57.8,48.1,62,48.1,66.9z"/>
	</g>
	<text transform="matrix(1 0 0 1 56.1192 50.3297)" class="st0 st1 st2">Equi-Weather</text>
</g>
</svg>
